<svg width="50" height="50" viewBox="0 0 50 50" fill="none" xmlns="http://www.w3.org/2000/svg">
<path d="M35.0562 25.576C35.0101 20.9097 38.8613 18.6727 39.0329 18.561C36.8684 15.3937 33.4973 14.9608 32.2965 14.9101C29.4273 14.62 26.6987 16.5991 25.2423 16.5991C23.7904 16.5991 21.543 14.9527 19.1632 14.9965C16.0362 15.0425 13.1521 16.8144 11.5426 19.6156C8.29353 25.2536 10.7102 33.6054 13.8775 38.1785C15.4249 40.4167 17.2705 42.93 19.6928 42.8402C22.0254 42.747 22.9085 41.3308 25.7281 41.3308C28.5477 41.3308 29.341 42.8402 31.8106 42.7942C34.3205 42.747 35.9116 40.5134 37.4487 38.2683C39.2252 35.672 39.9574 33.1575 40 33.0286C39.9447 33.0032 35.1045 31.1496 35.0562 25.576V25.576ZM30.4175 11.8833C31.7035 10.3232 32.5716 8.15874 32.3344 6C30.482 6.07599 28.2369 7.23423 26.9082 8.78967C25.7155 10.1701 24.6723 12.3738 24.9521 14.4899C27.0199 14.6511 29.1303 13.4387 30.4175 11.8833V11.8833Z" fill="black"/>
</svg>
