<svg width="50" height="50" viewBox="0 0 50 50" fill="none" xmlns="http://www.w3.org/2000/svg">
<path d="M39.576 32.4429C38.3046 32.4429 37.2751 31.3703 37.2751 30.0501V19.8171C37.2751 18.4951 38.3046 17.4243 39.576 17.4243C40.8474 17.4243 41.8769 18.4951 41.8769 19.8171V30.0501C41.8769 31.3703 40.8474 32.4429 39.576 32.4429ZM33.3109 37.4928H31.5576C31.6157 37.7047 31.6495 37.926 31.6495 38.1566V43.2066C31.6495 44.5286 30.6181 45.5994 29.3468 45.5994C28.0772 45.5994 27.0458 44.5286 27.0458 43.2066V38.1566C27.0458 37.926 27.0796 37.7047 27.1377 37.4928H22.8623C22.9204 37.7047 22.956 37.926 22.956 38.1566V43.2066C22.956 44.5286 21.9247 45.5994 20.6533 45.5994C19.3819 45.5994 18.3505 44.5286 18.3505 43.2066V38.1566C18.3505 37.926 18.3842 37.7047 18.4424 37.4928H16.6891C15.3502 37.4928 14.2606 36.3602 14.2606 34.9669V17.4243H35.7394V34.9669C35.7394 36.3602 34.6517 37.4928 33.3109 37.4928V37.4928ZM19.7194 7.85136L19.2881 7.17627L18.8605 6.51245L17.9042 5.01977C17.7879 4.83789 17.8349 4.59038 18.0111 4.4685C18.1874 4.34472 18.4255 4.39536 18.5436 4.5791L19.5694 6.17871L20.0007 6.85L20.4376 7.53066C21.8234 6.97378 23.3686 6.66059 25 6.66059C26.6314 6.66059 28.1785 6.97378 29.5643 7.53071L30.0012 6.85L30.4325 6.17866L31.4582 4.5791C31.5745 4.39536 31.8126 4.34472 31.9908 4.46845C32.1652 4.59038 32.2139 4.83789 32.0958 5.01977L31.1395 6.51245L30.7138 7.17627L30.2806 7.85136C33.5378 9.42656 35.7394 12.4119 35.7394 15.8304H14.2606C14.2606 12.4119 16.464 9.42656 19.7194 7.85136V7.85136ZM29.6037 12.6407C30.2394 12.6407 30.7531 12.1043 30.7531 11.4443C30.7531 10.7842 30.2394 10.2498 29.6037 10.2498C28.9679 10.2498 28.4523 10.7842 28.4523 11.4443C28.4523 12.1043 28.9679 12.6407 29.6037 12.6407ZM20.3982 12.6407C21.0339 12.6407 21.5478 12.1043 21.5478 11.4443C21.5478 10.7842 21.0339 10.2498 20.3982 10.2498C19.7625 10.2498 19.2469 10.7842 19.2469 11.4443C19.2469 12.1043 19.7625 12.6407 20.3982 12.6407V12.6407ZM10.424 32.4429C9.15259 32.4429 8.12309 31.3702 8.12309 30.05V19.8171C8.12309 18.4951 9.15259 17.4243 10.424 17.4243C11.6954 17.4243 12.7267 18.4951 12.7267 19.8171V30.0501C12.7267 31.3703 11.6954 32.4429 10.424 32.4429V32.4429Z" fill="black"/>
</svg>
